<svg xmlns="http://www.w3.org/2000/svg" viewBox="0 0 120 120">
  <rect width="120" height="120" rx="24" fill="#12211f"/>
  <path d="M24 60c9-26 62-26 72 0 3 9-4 28-36 28S21 69 24 60Z" fill="#e35e46"/>
  <path d="M38 55c4-8 12-13 22-13s18 5 22 13" fill="none" stroke="#fffbf4" stroke-width="6" stroke-linecap="round"/>
  <circle cx="48" cy="62" r="5" fill="#12211f"/>
  <circle cx="72" cy="62" r="5" fill="#12211f"/>
  <path d="M27 54 11 42m82 12 16-12M36 82 22 96m62-14 14 14M46 86l-5 17m33-17 5 17" stroke="#fffbf4" stroke-width="7" stroke-linecap="round"/>
  <path d="M20 35c-4-13 8-22 18-14-10 2-13 9-18 14Zm80 0c4-13-8-22-18-14 10 2 13 9 18 14Z" fill="#e35e46"/>
</svg>
